<?xml version="1.0" standalone="no"?>
<!DOCTYPE svg PUBLIC "-//W3C//DTD SVG 20010904//EN"
 "http://www.w3.org/TR/2001/REC-SVG-20010904/DTD/svg10.dtd">
<svg version="1.0" xmlns="http://www.w3.org/2000/svg"
 width="500.000000pt" height="500.000000pt" viewBox="0 0 500.000000 500.000000"
 preserveAspectRatio="xMidYMid meet">

<g transform="translate(0.000000,500.000000) scale(0.100000,-0.100000)"
fill="#000000" stroke="none">
<path d="M1586 3715 c-56 -20 -108 -65 -134 -116 l-22 -44 2 -880 3 -880 28
-42 c15 -24 46 -55 69 -70 l42 -28 910 -3 c1015 -3 964 -6 1027 65 62 71 59
22 59 968 0 947 3 904 -58 969 -15 16 -49 39 -77 52 l-50 24 -880 -1 c-722 0
-887 -2 -919 -14z m738 -141 c13 -12 16 -38 16 -119 l0 -103 -45 -60 c-36 -47
-45 -68 -45 -99 0 -31 11 -56 45 -109 44 -67 45 -70 45 -149 0 -69 -3 -85 -20
-100 -17 -15 -24 -16 -45 -7 -27 12 -32 28 -38 113 -2 41 -10 65 -30 90 -79
104 -77 213 8 328 22 30 25 44 25 114 0 61 4 85 17 99 20 22 46 23 67 2z m220
0 c13 -12 16 -39 16 -129 l0 -113 -36 -52 c-66 -97 -66 -131 1 -226 33 -46 35
-54 35 -126 0 -72 -2 -79 -25 -94 -23 -15 -27 -15 -50 0 -22 14 -25 24 -25 75
0 50 -5 66 -33 107 -78 114 -76 208 8 323 22 30 25 44 25 124 0 70 4 95 17
109 20 22 46 23 67 2z m215 3 c6 -8 11 -56 12 -108 3 -165 2 -172 -37 -223
-49 -64 -48 -105 2 -187 36 -58 39 -68 39 -137 0 -61 -3 -76 -19 -88 -27 -19
-42 -18 -66 6 -15 15 -20 33 -20 79 0 52 -5 65 -37 112 -35 50 -38 59 -38 125
0 65 3 74 38 125 l37 54 0 105 c0 79 4 111 16 128 17 24 56 29 73 9z m-969
-67 c0 -40 23 -70 62 -82 45 -13 45 -29 0 -40 -35 -9 -62 -42 -62 -75 0 -33
-17 -28 -25 6 -7 35 -42 68 -75 73 -35 4 -31 19 10 33 35 12 70 55 70 88 0 9
5 17 10 17 6 0 10 -9 10 -20z m1420 0 c0 -40 23 -70 62 -82 42 -12 46 -31 7
-36 -35 -5 -69 -41 -69 -74 0 -18 -5 -28 -15 -28 -9 0 -15 9 -15 24 0 37 -37
76 -71 76 -43 0 -37 27 9 40 39 10 62 40 62 80 0 11 7 20 15 20 8 0 15 -9 15
-20z m-1318 -392 c2 -14 15 -29 35 -38 35 -16 44 -40 16 -40 -20 0 -53 -28
-53 -47 0 -7 -7 -13 -15 -13 -8 0 -15 5 -15 12 0 19 -31 48 -52 48 -29 0 -21
24 12 37 18 7 32 21 36 37 8 32 31 34 36 4z m1242 -2 c3 -14 20 -30 41 -40 19
-9 35 -19 35 -21 0 -3 -16 -11 -36 -20 -20 -8 -38 -24 -41 -35 -7 -25 -21 -26
-30 -2 -9 22 -34 41 -55 42 -29 0 -21 25 12 37 17 6 34 23 40 37 12 32 26 33
34 2z m-1393 -206 c6 -17 23 -34 40 -42 36 -16 36 -20 -1 -36 -17 -8 -33 -24
-36 -38 -8 -31 -30 -31 -38 0 -4 16 -18 29 -41 37 -44 16 -44 24 -1 39 24 8
38 20 45 41 13 37 19 37 32 -1z m1550 -2 c8 -20 23 -35 38 -38 36 -8 35 -23
-2 -40 -17 -8 -36 -25 -42 -37 -13 -29 -19 -29 -33 2 -7 15 -26 32 -43 39
l-31 13 36 21 c20 12 38 32 42 46 8 34 17 33 35 -6z m-231 -198 c17 -17 20
-33 20 -115 0 -91 1 -95 22 -95 70 0 148 -76 163 -161 19 -106 -77 -219 -187
-219 -12 0 -27 -21 -46 -62 -35 -77 -112 -152 -203 -200 l-64 -33 -255 0 -255
0 -68 32 c-89 42 -182 130 -215 203 -47 105 -52 140 -52 394 0 209 2 242 17
258 15 17 46 18 560 18 530 0 543 0 563 -20z m238 -91 c-2 -6 -8 -10 -13 -10
-5 0 -11 4 -13 10 -2 6 4 11 13 11 9 0 15 -5 13 -11z m-1593 -399 c0 -18 -6
-26 -23 -28 -24 -4 -38 18 -28 44 3 9 15 14 28 12 17 -2 23 -10 23 -28z m1519
-266 c7 -19 -10 -44 -31 -44 -17 0 -27 24 -19 45 7 20 42 19 50 -1z m-1552
-49 c0 -5 -5 -11 -11 -13 -6 -2 -11 4 -11 13 0 9 5 15 11 13 6 -2 11 -8 11
-13z"/>
<path d="M2520 2670 c0 -5 5 -10 10 -10 6 0 10 5 10 10 0 6 -4 10 -10 10 -5 0
-10 -4 -10 -10z"/>
<path d="M2810 2660 c0 -5 5 -10 10 -10 6 0 10 5 10 10 0 6 -4 10 -10 10 -5 0
-10 -4 -10 -10z"/>
<path d="M2024 2606 c-3 -9 -4 -104 -2 -213 4 -188 5 -201 30 -255 33 -72 98
-142 163 -176 49 -26 54 -27 268 -30 180 -3 226 -1 265 13 100 34 166 99 211
211 l28 69 71 5 c56 4 74 9 86 25 20 26 20 85 0 113 -13 19 -24 22 -89 22
l-74 0 -3 113 -3 112 -473 3 c-408 2 -473 0 -478 -12z m506 -146 c4 -29 10
-36 34 -40 37 -6 55 -32 37 -54 -20 -24 -199 -23 -208 0 -10 26 11 49 46 52
28 3 31 7 31 36 0 39 7 48 35 44 14 -2 21 -12 25 -38z m68 -252 c29 -29 2 -68
-47 -68 -16 0 -20 -8 -23 -37 -3 -33 -6 -38 -28 -38 -22 0 -25 5 -28 38 -3 29
-7 37 -23 37 -31 0 -59 19 -59 38 0 34 22 42 110 42 54 0 91 -5 98 -12z"/>
<path d="M3796 1542 c-3 -5 8 -6 25 -4 16 2 29 6 29 8 0 8 -49 4 -54 -4z"/>
<path d="M3814 1516 c-3 -8 -4 -23 -1 -33 3 -12 5 -8 6 10 1 33 18 36 24 5 5
-21 5 -21 4 1 -2 28 -24 40 -33 17z"/>
<path d="M3868 1505 c2 -14 -2 -33 -9 -43 -13 -15 -12 -16 4 -3 18 14 23 56 8
65 -4 3 -6 -6 -3 -19z"/>
<path d="M3145 1486 c-20 -15 -15 -43 10 -52 18 -7 45 12 45 32 0 22 -35 35
-55 20z"/>
<path d="M1319 1475 c-32 -18 -52 -66 -39 -99 4 -13 26 -31 47 -40 72 -32 88
-42 88 -56 0 -20 -49 -25 -86 -10 -23 10 -32 10 -44 0 -22 -18 -19 -28 18 -50
48 -29 121 -27 152 5 24 24 29 39 25 80 -3 29 -19 42 -80 62 -42 14 -55 23
-55 38 0 20 18 23 95 13 19 -2 26 2 28 19 6 44 -92 69 -149 38z"/>
<path d="M2434 1477 c-2 -7 -3 -71 -2 -143 l3 -129 86 -3 c81 -3 87 -1 112 24
30 30 35 68 12 101 -11 16 -12 28 -4 51 12 35 -7 84 -40 102 -29 15 -160 13
-167 -3z m141 -63 c25 -25 13 -39 -38 -42 -44 -3 -47 -1 -47 21 0 13 3 27 7
30 12 13 62 7 78 -9z m10 -108 c33 -24 12 -46 -45 -46 -46 0 -50 2 -50 24 0
36 58 50 95 22z"/>
<path d="M3780 1483 c0 -6 8 -17 18 -24 16 -13 16 -13 2 6 -8 11 -16 22 -17
24 -2 2 -3 0 -3 -6z"/>
<path d="M1527 1403 c-4 -3 -7 -39 -7 -78 0 -58 4 -78 21 -99 22 -28 64 -35
100 -16 13 7 19 7 19 0 0 -5 11 -10 25 -10 31 0 37 21 33 125 -3 76 -4 80 -27
83 -32 5 -42 -13 -39 -76 2 -59 -8 -75 -43 -70 -22 3 -25 10 -33 76 -7 57 -12
72 -26 72 -9 0 -20 -3 -23 -7z"/>
<path d="M1764 1397 c-2 -7 -3 -69 -2 -138 l3 -124 25 0 c22 0 26 5 30 42 4
35 8 41 20 33 27 -17 68 -11 99 16 27 23 31 32 31 77 -1 55 -11 76 -47 95 -27
15 -76 15 -90 1 -8 -8 -13 -8 -17 0 -10 15 -46 14 -52 -2z m142 -62 c14 -21
15 -31 6 -50 -21 -45 -92 -26 -92 24 0 16 38 51 55 51 8 0 22 -11 31 -25z"/>
<path d="M2034 1376 c-46 -46 -48 -104 -5 -147 25 -24 38 -29 78 -29 61 0 93
20 76 47 -6 10 -17 16 -25 14 -39 -12 -70 -12 -83 -1 -27 23 -5 33 60 26 73
-7 84 3 61 58 -31 74 -106 88 -162 32z m100 -22 c9 -3 16 -12 16 -20 0 -10
-13 -14 -45 -14 -46 0 -54 7 -33 28 13 13 37 15 62 6z"/>
<path d="M2251 1397 c-11 -11 -3 -177 10 -191 19 -21 39 4 39 48 0 68 16 94
59 98 31 3 36 7 36 28 0 24 -3 25 -67 26 -37 1 -71 -3 -77 -9z"/>
<path d="M2724 1376 c-24 -24 -34 -43 -34 -66 0 -124 171 -153 210 -35 22 66
-34 135 -111 135 -22 0 -41 -10 -65 -34z m106 -36 c24 -24 24 -29 4 -58 -23
-33 -65 -26 -79 12 -8 24 -6 31 14 47 29 24 36 24 61 -1z"/>
<path d="M2954 1397 c-3 -8 -4 -54 -2 -103 3 -78 5 -89 22 -92 26 -5 36 15 36
74 0 56 12 74 51 74 35 0 56 24 39 45 -14 17 -61 20 -77 4 -8 -8 -13 -8 -17 0
-10 15 -46 14 -52 -2z"/>
<path d="M3142 1398 c-13 -16 -13 -156 0 -180 15 -30 45 -22 52 13 10 53 7
154 -6 167 -15 15 -33 15 -46 0z"/>
<path d="M3245 1387 c-3 -12 -5 -58 -3 -102 3 -78 4 -80 28 -80 23 0 25 4 28
45 4 68 10 88 32 100 14 8 26 8 40 0 16 -9 20 -21 20 -68 0 -65 9 -85 36 -80
16 3 20 14 22 63 4 72 -2 99 -28 125 -22 22 -70 26 -101 10 -13 -7 -19 -7 -19
0 0 5 -11 10 -25 10 -17 0 -26 -7 -30 -23z"/>
<path d="M3522 1385 c-75 -63 -33 -175 66 -175 30 0 42 -4 40 -12 -6 -18 -57
-22 -84 -7 -28 15 -54 6 -54 -20 0 -29 79 -57 127 -45 63 16 77 48 78 172 l0
107 -27 3 c-16 2 -28 -2 -28 -8 0 -7 -6 -8 -19 0 -32 17 -68 11 -99 -15z m103
-45 c38 -42 -18 -105 -61 -70 -20 17 -18 67 4 79 25 15 37 13 57 -9z"/>
</g>
</svg>
